HIERARCHY
ROOT Hips
{
	OFFSET	0.00	0.00	0.00
	CHANNELS 6 Xposition Yposition Zposition Zrotation Xrotation Yrotation
	JOINT Chest
	{
		OFFSET	0.00	6.28	0.00
		CHANNELS 3 Zrotation Xrotation Yrotation
		JOINT Neck
		{
			OFFSET	0.00	14.30	0.00
			CHANNELS 3 Zrotation Xrotation Yrotation
			JOINT Head
			{
				OFFSET	0.00	2.64	0.00
				CHANNELS 3 Zrotation Xrotation Yrotation
				End Site
				{
					OFFSET	0.00	4.50	0.00
				}
			}
		}
		JOINT LeftCollar
		{
			OFFSET	1.12	11.36	1.87
			CHANNELS 3 Zrotation Xrotation Yrotation
			JOINT LeftUpArm
			{
				OFFSET	4.57	2.02	-1.82
				CHANNELS 3 Zrotation Xrotation Yrotation
				JOINT LeftLowArm
				{
					OFFSET	0.22	-10.35	-0.06
					CHANNELS 3 Zrotation Xrotation Yrotation
					JOINT LeftHand
					{
						OFFSET	0.09	-10.35	2.18
						CHANNELS 3 Zrotation Xrotation Yrotation
						End Site
						{
							OFFSET	0.13	-6.69	1.71
						}
					}
				}
			}
		}
		JOINT RightCollar
		{
			OFFSET	-1.12	11.36	1.87
			CHANNELS 3 Zrotation Xrotation Yrotation
			JOINT RightUpArm
			{
				OFFSET	-4.71	2.03	-1.82
				CHANNELS 3 Zrotation Xrotation Yrotation
				JOINT RightLowArm
				{
					OFFSET	-0.26	-10.43	-0.06
					CHANNELS 3 Zrotation Xrotation Yrotation
					JOINT RightHand
					{
						OFFSET	0.00	-10.26	2.18
						CHANNELS 3 Zrotation Xrotation Yrotation
						End Site
						{
							OFFSET	-0.14	-6.67	1.71
						}
					}
				}
			}
		}
	}
	JOINT LeftUpLeg
	{
		OFFSET	3.91	0.00	0.00
		CHANNELS 3 Zrotation Xrotation Yrotation
		JOINT LeftLowLeg
		{
			OFFSET	-0.44	-17.57	1.70
			CHANNELS 3 Zrotation Xrotation Yrotation
			JOINT LeftFoot
			{
				OFFSET	-0.04	-17.20	-1.48
				CHANNELS 3 Zrotation Xrotation Yrotation
				End Site
				{
					OFFSET	0.00	-3.93	5.23
				}
			}
		}
	}
	JOINT RightUpLeg
	{
		OFFSET	-3.91	0.00	0.00
		CHANNELS 3 Zrotation Xrotation Yrotation
		JOINT RightLowLeg
		{
			OFFSET	0.44	-17.62	1.70
			CHANNELS 3 Zrotation Xrotation Yrotation
			JOINT RightFoot
			{
				OFFSET	0.00	-17.14	-1.48
				CHANNELS 3 Zrotation Xrotation Yrotation
				End Site
				{
					OFFSET	0.00	-4.04	5.23
				}
			}
		}
	}
}
MOTION
Frames: 15
Frame Time: 0.04166667
128.04	4.57	0.03	-4.66	-1.17	82.96	3.14	-13.85	-0.35	2.29	13.01	18.32	-3.33	3.74	-0.76	-9.25	0.26	0.81	27.23	-15.86	-37.05	-0.61	-0.44	1.43	-3.71	2.49	-0.79	8.81	4.18	2.78	-23.62	4.90	17.96	-5.12	6.26	1.90	3.58	2.42	0.77	3.44	-6.24	21.23	-2.26	19.14	-4.64	-3.32	-14.51	-0.65	-18.19	-31.23	-38.24	2.47	40.22	7.69	13.06	14.82	0.21
128.89	4.71	0.08	-4.88	-0.99	82.51	3.15	-14.74	-1.18	2.25	13.37	19.09	-3.76	3.61	-0.87	-8.99	-0.32	0.34	26.90	-15.67	-41.23	-0.71	-2.37	1.74	-4.80	2.51	-1.02	8.54	3.43	3.20	-23.50	6.60	19.19	-5.12	6.22	1.93	4.45	2.43	0.95	0.71	0.48	21.16	-2.20	7.55	-5.46	1.17	-15.50	0.06	-14.87	-28.08	-40.36	2.84	28.71	12.03	15.68	13.21	-0.37
129.79	4.83	0.21	-5.09	-0.84	82.03	3.00	-15.85	-1.93	2.28	13.91	19.51	-4.02	3.44	-0.94	-8.16	-1.54	-0.46	26.14	-14.43	-46.03	-0.29	-3.89	1.53	-4.78	2.51	-1.02	7.74	1.80	4.09	-22.77	9.45	18.93	-4.93	6.07	1.90	4.51	2.44	0.97	-0.42	3.88	20.35	-1.98	2.25	-4.23	0.74	-13.75	-0.04	-9.25	-23.52	-35.16	3.00	12.61	11.84	19.59	11.80	-1.33
130.20	4.86	0.40	-5.63	-1.03	81.35	3.60	-17.72	-2.45	1.90	14.89	19.87	-4.15	3.25	-0.98	-7.03	-3.93	-1.66	24.74	-11.31	-51.04	0.36	-5.14	1.07	-4.60	2.50	-0.98	6.51	-0.54	5.64	-21.78	13.60	19.05	-4.91	6.06	1.88	5.04	2.44	1.08	-1.01	7.09	19.69	-1.74	-2.85	-2.94	0.04	-12.31	-0.14	-2.61	-15.78	-26.21	2.19	-9.15	8.51	19.03	11.45	-1.02
131.19	4.86	0.63	-5.28	-1.00	80.87	3.07	-17.93	-2.69	2.47	14.98	19.28	-4.30	3.13	-1.03	-6.84	-3.43	-2.11	25.00	-12.05	-54.53	0.75	-6.19	0.85	-4.99	2.51	-1.06	7.06	-0.75	5.49	-22.19	14.58	19.67	-4.76	5.97	1.87	4.42	2.43	0.95	-2.14	11.82	19.45	-1.48	-9.20	-1.83	-0.69	-10.30	-0.20	-2.60	-15.33	-20.66	1.85	-9.20	4.54	15.41	2.51	2.59
132.20	4.79	0.91	-4.64	-0.88	81.29	1.85	-17.49	-3.40	3.41	14.57	17.97	-4.39	3.03	-1.06	-6.72	-2.03	-2.20	25.56	-14.18	-56.89	0.80	-6.91	0.68	-3.95	2.49	-0.84	8.05	-0.38	4.60	-22.67	14.38	19.92	-5.00	6.13	1.91	4.69	2.44	1.00	-1.99	13.85	18.21	-1.40	-9.20	-0.90	-1.22	-11.45	-0.27	-2.04	-13.95	-20.79	1.86	-9.21	4.67	14.19	-2.52	4.06
133.07	4.70	1.24	-3.60	-0.58	82.16	0.05	-16.87	-4.19	4.49	14.36	16.20	-4.45	3.01	-1.07	-6.04	-1.13	-2.61	25.81	-15.62	-59.85	0.86	-7.50	0.80	-4.99	2.51	-1.06	8.72	-0.97	4.08	-22.42	15.49	19.66	-5.14	6.23	1.93	4.97	2.44	1.06	-1.78	16.33	16.73	-1.34	-9.20	-0.27	-2.12	-12.38	-0.39	-1.71	-11.84	-20.56	2.03	-9.19	6.52	9.62	-2.90	4.43
133.98	4.61	1.59	-3.34	-0.77	82.83	-0.02	-17.73	-4.74	4.30	14.80	14.74	-4.31	3.17	-1.03	-5.49	-2.31	-3.77	24.82	-14.04	-59.23	-0.02	-7.28	1.33	-3.67	2.49	-0.78	7.97	-2.15	4.45	-21.92	18.00	20.01	-4.84	6.07	1.82	5.13	2.45	1.10	-0.96	18.11	15.38	-1.28	-9.20	0.41	-2.92	-13.42	-0.53	-0.40	-11.07	-22.51	2.35	-9.14	10.09	2.93	0.84	4.64
135.05	4.61	1.91	-3.46	-1.07	83.01	0.68	-19.01	-5.30	3.59	15.29	13.69	-4.26	3.45	-0.99	-5.48	-3.83	-4.65	23.78	-11.43	-61.38	0.05	-6.97	1.27	-3.74	2.49	-0.80	7.07	-3.10	5.16	-21.88	20.00	20.84	-4.77	6.09	1.76	4.85	2.44	1.04	-0.11	19.36	14.37	-1.21	-9.20	1.26	-3.84	-13.53	-0.66	0.48	-10.71	-23.44	2.40	-9.12	10.78	0.13	5.59	4.97
135.57	4.64	2.22	-3.40	-1.45	82.50	1.60	-19.45	-5.61	3.00	15.21	13.06	-4.37	3.59	-1.01	-6.12	-3.81	-4.40	23.64	-10.63	-62.28	-0.14	-6.42	1.39	-3.71	2.49	-0.79	6.98	-2.59	5.38	-22.77	19.52	22.26	-5.09	6.30	1.74	6.10	2.47	1.31	0.63	20.73	14.10	-1.14	-9.20	1.99	-5.14	-12.78	-0.78	1.19	-10.15	-23.68	2.43	-9.11	11.18	-0.55	10.17	5.16
136.62	4.66	2.55	-3.33	-1.88	81.72	2.49	-19.65	-5.52	2.63	15.01	12.52	-4.43	3.47	-1.03	-6.34	-3.72	-4.17	23.33	-9.82	-61.78	-0.47	-5.61	1.60	-3.62	2.49	-0.77	6.81	-2.24	5.49	-23.40	18.90	23.35	-5.16	6.34	1.73	5.94	2.46	1.27	1.41	22.08	14.23	-1.09	-9.19	2.65	-6.79	-11.27	-0.81	2.31	-9.40	-24.70	2.58	-9.08	12.99	-2.49	12.93	5.82
137.49	4.69	2.96	-2.84	-2.23	81.03	2.79	-19.34	-5.41	2.48	14.80	11.68	-4.24	3.13	-1.01	-6.44	-3.43	-3.98	23.47	-9.00	-61.79	-0.49	-4.87	1.67	-4.29	2.50	-0.91	6.83	-1.85	5.44	-23.80	18.15	24.26	-5.02	6.25	1.75	5.24	2.45	1.12	4.14	21.12	10.58	-0.98	-4.46	4.32	-15.58	-5.06	0.03	3.66	-7.86	-25.87	2.75	-9.03	15.03	-5.85	13.14	6.96
138.37	4.70	3.42	-2.31	-2.61	80.84	2.87	-18.97	-5.53	2.23	14.48	10.62	-4.00	2.95	-0.97	-7.21	-2.25	-3.47	24.65	-8.99	-61.47	-0.65	-4.38	1.79	-4.46	2.50	-0.95	7.39	-0.33	4.78	-24.63	16.06	24.09	-4.88	6.14	1.78	4.87	2.44	1.04	6.05	20.05	8.46	-0.94	0.92	4.76	-18.23	-4.73	0.18	3.56	-8.11	-25.11	2.78	-4.08	13.79	-8.20	9.52	7.25
139.24	4.73	3.92	-1.75	-2.78	80.98	2.41	-18.89	-5.72	2.10	14.45	9.38	-3.79	3.20	-0.90	-7.32	-1.80	-3.37	25.33	-7.69	-60.46	-0.97	-3.84	1.90	-3.77	2.49	-0.80	7.51	0.00	4.43	-24.60	15.40	23.68	-4.83	6.07	1.81	4.89	2.44	1.05	7.53	19.45	6.22	-0.89	4.87	5.08	-20.05	-3.32	0.72	3.57	-7.53	-23.83	2.68	-0.79	11.90	-9.26	6.26	7.03
140.28	4.77	4.39	-1.10	-2.89	80.99	2.07	-18.74	-5.76	1.75	14.47	8.23	-3.61	3.71	-0.82	-7.39	-1.62	-3.12	25.77	-5.87	-58.72	-1.32	-3.16	1.99	-2.83	2.48	-0.60	7.49	0.24	4.17	-24.50	14.68	23.26	-4.73	5.97	1.81	4.93	2.44	1.06	8.77	18.59	4.03	-0.87	9.09	5.15	-21.77	-1.37	1.58	3.87	-6.16	-23.73	2.66	0.86	11.63	-9.93	3.95	6.78
